<?xml version="1.0" encoding="UTF-8"?>
<svg xmlns="http://www.w3.org/2000/svg" xmlns:xlink="http://www.w3.org/1999/xlink" width="45pt" height="45pt" viewBox="0 0 45 45" version="1.1">
<g id="surface15713402">
<path style="fill-rule:nonzero;fill:rgb(97.647059%,90.196079%,36.078432%);fill-opacity:1;stroke-width:3;stroke-linecap:butt;stroke-linejoin:round;stroke:rgb(0%,0%,0%);stroke-opacity:1;stroke-miterlimit:10;" d="M 146.193077 86.000002 C 146.193077 119.248208 119.248208 146.193077 86.000002 146.193077 C 52.751795 146.193077 25.806927 119.248208 25.806927 86.000002 C 25.806927 52.751795 52.751795 25.806927 86.000002 25.806927 C 100.429328 25.806927 113.673931 30.879974 124.047858 39.355305 L 108.099655 55.303508 C 101.88745 50.807634 94.247501 48.164788 86.000002 48.164788 C 65.100261 48.164788 48.164788 65.100261 48.164788 86.000002 C 48.164788 106.899742 65.100261 123.835215 86.000002 123.835215 C 102.692454 123.835215 116.848383 113.036003 121.875864 98.044692 L 86.000002 98.044692 L 86.000002 75.68683 L 145.281751 75.68683 C 145.858924 79.028359 146.193077 82.476208 146.193077 86.000002 Z M 146.193077 86.000002 " transform="matrix(0.25718,0,0,0.25718,0.3825,0.3825)"/>
<path style="fill-rule:nonzero;fill:rgb(47.058824%,63.529414%,82.352942%);fill-opacity:1;stroke-width:3;stroke-linecap:butt;stroke-linejoin:round;stroke:rgb(0%,0%,0%);stroke-opacity:1;stroke-miterlimit:10;" d="M 86.000002 75.68683 L 145.281751 75.68683 C 145.858924 79.028359 146.193077 82.476208 146.193077 86.000002 C 146.193077 104.940391 137.444348 121.830298 123.77446 132.857341 L 106.793421 117.577444 C 113.780253 112.975248 119.157075 106.125115 121.875864 98.044692 L 86.000002 98.044692 Z M 86.000002 75.68683 " transform="matrix(0.25718,0,0,0.25718,0.3825,0.3825)"/>
<path style="fill-rule:nonzero;fill:rgb(37.64706%,74.509805%,57.254905%);fill-opacity:1;stroke-width:3;stroke-linecap:butt;stroke-linejoin:round;stroke:rgb(0%,0%,0%);stroke-opacity:1;stroke-miterlimit:10;" d="M 123.77446 132.857341 C 113.4461 141.195973 100.307818 146.193077 86.000002 146.193077 C 62.594115 146.193077 42.332303 132.842153 32.368473 113.32459 L 51.369618 101.234333 C 57.232481 114.539691 70.52265 123.835215 86.000002 123.835215 C 93.685517 123.835215 100.824236 121.526523 106.793421 117.577444 Z M 123.77446 132.857341 " transform="matrix(0.25718,0,0,0.25718,0.3825,0.3825)"/>
<path style="fill-rule:nonzero;fill:rgb(94.509804%,35.686275%,42.352942%);fill-opacity:1;stroke-width:3;stroke-linecap:butt;stroke-linejoin:round;stroke:rgb(0%,0%,0%);stroke-opacity:1;stroke-miterlimit:10;" d="M 32.003943 59.374097 C 41.831073 39.492004 62.305529 25.806927 86.000002 25.806927 C 100.429328 25.806927 113.673931 30.879974 124.047858 39.355305 L 108.099655 55.303508 C 101.88745 50.807634 94.247501 48.164788 86.000002 48.164788 C 70.234064 48.164788 56.731252 57.794465 51.050654 71.494731 Z M 32.003943 59.374097 " transform="matrix(0.25718,0,0,0.25718,0.3825,0.3825)"/>
<path style="fill-rule:nonzero;fill:rgb(12.156863%,12.941177%,16.862746%);fill-opacity:1;stroke-width:3;stroke-linecap:butt;stroke-linejoin:round;stroke:rgb(0%,0%,0%);stroke-opacity:1;stroke-miterlimit:10;" d="M 86.000002 147.924596 C 51.855658 147.924596 24.075407 120.144345 24.075407 86.000002 C 24.075407 51.855658 51.855658 24.075407 86.000002 24.075407 C 100.231874 24.075407 114.129594 29.026945 125.141449 38.018694 C 125.505979 38.322469 125.733811 38.778132 125.764188 39.264172 C 125.794566 39.750213 125.6123 40.221064 125.262959 40.570406 L 109.314756 56.50342 C 108.722394 57.110971 107.78069 57.186915 107.097196 56.685686 C 100.915369 52.235377 93.624762 49.881119 86.000002 49.881119 C 66.087531 49.881119 49.881119 66.087531 49.881119 86.000002 C 49.881119 105.912472 66.087531 122.118885 86.000002 122.118885 C 100.733104 122.118885 113.856196 113.233457 119.400096 99.761023 L 86.000002 99.761023 C 85.04311 99.761023 84.283671 98.986396 84.283671 98.044692 L 84.283671 75.68683 C 84.283671 74.729938 85.04311 73.955311 86.000002 73.955311 L 145.281751 73.955311 C 146.117133 73.955311 146.831005 74.562862 146.982893 75.383055 C 147.605632 78.982792 147.924596 82.552152 147.924596 86.000002 C 147.924596 120.144345 120.144345 147.924596 86.000002 147.924596 Z M 86.000002 27.523257 C 53.754254 27.523257 27.523257 53.754254 27.523257 86.000002 C 27.523257 118.245749 53.754254 144.476746 86.000002 144.476746 C 118.245749 144.476746 144.476746 118.245749 144.476746 86.000002 C 144.476746 83.205269 144.264104 80.319404 143.82363 77.403161 L 87.716332 77.403161 L 87.716332 96.313173 L 121.875864 96.313173 C 122.42266 96.313173 122.939078 96.586571 123.273231 97.042234 C 123.592195 97.482708 123.683327 98.059881 123.501062 98.591488 C 118.093862 114.721956 103.026607 125.566734 86.000002 125.566734 C 64.188935 125.566734 46.433269 107.811068 46.433269 86.000002 C 46.433269 64.188935 64.188935 46.433269 86.000002 46.433269 C 93.852593 46.433269 101.401409 48.726773 107.902201 53.070759 L 121.465768 39.507192 C 111.319673 31.760922 98.80413 27.523257 86.000002 27.523257 Z M 86.000002 27.523257 " transform="matrix(0.25718,0,0,0.25718,0.3825,0.3825)"/>
<path style="fill-rule:nonzero;fill:rgb(12.156863%,12.941177%,16.862746%);fill-opacity:1;stroke-width:3;stroke-linecap:butt;stroke-linejoin:round;stroke:rgb(0%,0%,0%);stroke-opacity:1;stroke-miterlimit:10;" d="M 122.984644 134.163575 C 122.772001 134.163575 122.574547 134.087631 122.407471 133.935744 L 115.526961 127.753916 C 115.177619 127.434952 115.147241 126.888157 115.466206 126.538815 C 115.78517 126.174285 116.316776 126.159096 116.681307 126.462871 L 123.561817 132.659887 C 123.911159 132.978851 123.941536 133.525647 123.622572 133.874989 C 123.440307 134.057254 123.212476 134.163575 122.984644 134.163575 Z M 122.984644 134.163575 " transform="matrix(0.25718,0,0,0.25718,0.3825,0.3825)"/>
<path style="fill-rule:nonzero;fill:rgb(12.156863%,12.941177%,16.862746%);fill-opacity:1;stroke-width:3;stroke-linecap:butt;stroke-linejoin:round;stroke:rgb(0%,0%,0%);stroke-opacity:1;stroke-miterlimit:10;" d="M 112.656284 124.868051 C 112.45883 124.868051 112.246187 124.807296 112.079111 124.655408 L 109.026169 121.906242 C 108.676828 121.587278 108.64645 121.040482 108.965414 120.691141 C 109.284378 120.32661 109.831174 120.311422 110.180515 120.615197 L 113.233457 123.379552 C 113.582799 123.698516 113.613176 124.230123 113.294212 124.594653 C 113.127136 124.776918 112.899304 124.868051 112.656284 124.868051 Z M 112.656284 124.868051 " transform="matrix(0.25718,0,0,0.25718,0.3825,0.3825)"/>
<path style="fill-rule:nonzero;fill:rgb(12.156863%,12.941177%,16.862746%);fill-opacity:1;stroke-width:3;stroke-linecap:butt;stroke-linejoin:round;stroke:rgb(0%,0%,0%);stroke-opacity:1;stroke-miterlimit:10;" d="M 48.043278 103.193684 C 47.754692 103.193684 47.481294 103.056985 47.314218 102.798776 C 47.056009 102.403868 47.177519 101.872261 47.572427 101.614052 L 50.276027 99.897722 C 50.670935 99.639513 51.202541 99.761023 51.46075 100.155931 C 51.718959 100.566027 51.597449 101.097634 51.202541 101.340654 L 48.498941 103.072173 C 48.362242 103.163306 48.195166 103.193684 48.043278 103.193684 Z M 48.043278 103.193684 " transform="matrix(0.25718,0,0,0.25718,0.3825,0.3825)"/>
<path style="fill-rule:nonzero;fill:rgb(12.156863%,12.941177%,16.862746%);fill-opacity:1;stroke-width:3;stroke-linecap:butt;stroke-linejoin:round;stroke:rgb(0%,0%,0%);stroke-opacity:1;stroke-miterlimit:10;" d="M 40.418518 108.054088 C 40.129932 108.054088 39.856534 107.902201 39.689458 107.643992 C 39.446437 107.249084 39.552759 106.717477 39.962855 106.459268 L 43.395516 104.272086 C 43.790424 104.029066 44.322031 104.135387 44.58024 104.530295 C 44.838449 104.940391 44.716939 105.471998 44.322031 105.730207 L 40.874181 107.917389 C 40.737482 108.008522 40.585595 108.054088 40.418518 108.054088 Z M 40.418518 108.054088 " transform="matrix(0.25718,0,0,0.25718,0.3825,0.3825)"/>
<path style="fill-rule:nonzero;fill:rgb(12.156863%,12.941177%,16.862746%);fill-opacity:1;stroke-width:3;stroke-linecap:butt;stroke-linejoin:round;stroke:rgb(0%,0%,0%);stroke-opacity:1;stroke-miterlimit:10;" d="M 31.821677 113.522044 C 31.533091 113.522044 31.259693 113.385345 31.092617 113.127136 C 30.834408 112.717039 30.955918 112.185432 31.350826 111.942412 L 36.515006 108.64645 C 36.909914 108.40343 37.44152 108.509751 37.699729 108.919848 C 37.957938 109.314756 37.836428 109.846363 37.44152 110.104572 L 32.27734 113.385345 C 32.140642 113.476477 31.973565 113.522044 31.821677 113.522044 Z M 31.821677 113.522044 " transform="matrix(0.25718,0,0,0.25718,0.3825,0.3825)"/>
<path style="fill-rule:nonzero;fill:rgb(12.156863%,12.941177%,16.862746%);fill-opacity:1;stroke-width:3;stroke-linecap:butt;stroke-linejoin:round;stroke:rgb(0%,0%,0%);stroke-opacity:1;stroke-miterlimit:10;" d="M 42.134849 65.677434 C 41.982961 65.677434 41.815885 65.631868 41.679186 65.540735 L 33.082345 60.07278 C 32.672248 59.814571 32.550738 59.282964 32.808947 58.872868 C 33.067156 58.47796 33.598763 58.371638 33.993671 58.614659 L 42.605701 64.082614 C 43.000608 64.340823 43.122119 64.87243 42.86391 65.282526 C 42.696833 65.525547 42.423435 65.677434 42.134849 65.677434 Z M 42.134849 65.677434 " transform="matrix(0.25718,0,0,0.25718,0.3825,0.3825)"/>
<path style="fill-rule:nonzero;fill:rgb(12.156863%,12.941177%,16.862746%);fill-opacity:1;stroke-width:3;stroke-linecap:butt;stroke-linejoin:round;stroke:rgb(0%,0%,0%);stroke-opacity:1;stroke-miterlimit:10;" d="M 47.299029 68.958208 C 47.147141 68.958208 46.980065 68.912641 46.843366 68.821509 L 45.111847 67.727918 C 44.716939 67.469709 44.595429 66.938102 44.853638 66.543194 C 45.111847 66.148286 45.643453 66.026776 46.038361 66.284985 L 47.754692 67.378576 C 48.164788 67.621596 48.286299 68.153203 48.02809 68.5633 C 47.861013 68.821509 47.587615 68.958208 47.299029 68.958208 Z M 47.299029 68.958208 " transform="matrix(0.25718,0,0,0.25718,0.3825,0.3825)"/>
<path style=" stroke:none;fill-rule:nonzero;fill:rgb(97.647059%,90.196079%,36.078432%);fill-opacity:1;" d="M 37.746094 19.847656 L 22.5 19.847656 L 22.5 25.597656 L 31.726562 25.597656 C 30.433594 29.453125 26.792969 32.230469 22.5 32.230469 C 17.125 32.230469 12.769531 27.875 12.769531 22.5 C 12.769531 17.125 17.125 12.769531 22.5 12.769531 C 24.621094 12.769531 26.585938 13.449219 28.183594 14.605469 L 32.285156 10.503906 C 29.617188 8.324219 26.210938 7.019531 22.5 7.019531 C 13.949219 7.019531 7.019531 13.949219 7.019531 22.5 C 7.019531 31.050781 13.949219 37.980469 22.5 37.980469 C 31.050781 37.980469 37.980469 31.050781 37.980469 22.5 C 37.980469 21.59375 37.894531 20.707031 37.746094 19.847656 Z M 37.746094 19.847656 "/>
<path style=" stroke:none;fill-rule:nonzero;fill:rgb(47.058824%,63.529414%,82.352942%);fill-opacity:1;" d="M 22.5 25.597656 L 31.726562 25.597656 C 31.027344 27.675781 29.644531 29.4375 27.847656 30.621094 L 32.214844 34.550781 C 35.730469 31.714844 37.980469 27.371094 37.980469 22.5 C 37.980469 21.59375 37.894531 20.707031 37.746094 19.847656 L 22.5 19.847656 Z M 22.5 25.597656 "/>
<path style=" stroke:none;fill-rule:nonzero;fill:rgb(37.64706%,74.509805%,57.254905%);fill-opacity:1;" d="M 27.847656 30.621094 C 26.3125 31.636719 24.476562 32.230469 22.5 32.230469 C 18.519531 32.230469 15.101562 29.839844 13.59375 26.417969 L 8.707031 29.527344 C 11.269531 34.546875 16.480469 37.980469 22.5 37.980469 C 26.179688 37.980469 29.558594 36.695312 32.214844 34.550781 Z M 27.847656 30.621094 "/>
<path style=" stroke:none;fill-rule:nonzero;fill:rgb(94.509804%,35.686275%,42.352942%);fill-opacity:1;" d="M 13.511719 18.769531 C 14.972656 15.246094 18.445312 12.769531 22.5 12.769531 C 24.621094 12.769531 26.585938 13.449219 28.183594 14.605469 L 32.285156 10.503906 C 29.617188 8.324219 26.210938 7.019531 22.5 7.019531 C 16.40625 7.019531 11.140625 10.539062 8.613281 15.652344 Z M 13.511719 18.769531 "/>
<path style=" stroke:none;fill-rule:nonzero;fill:rgb(12.156863%,12.941177%,16.862746%);fill-opacity:1;" d="M 22.5 38.425781 C 13.71875 38.425781 6.574219 31.28125 6.574219 22.5 C 6.574219 13.71875 13.71875 6.574219 22.5 6.574219 C 26.160156 6.574219 29.734375 7.847656 32.566406 10.160156 C 32.660156 10.238281 32.71875 10.355469 32.726562 10.480469 C 32.734375 10.605469 32.6875 10.726562 32.597656 10.816406 L 28.496094 14.914062 C 28.34375 15.070312 28.101562 15.089844 27.925781 14.960938 C 26.335938 13.816406 24.460938 13.210938 22.5 13.210938 C 17.378906 13.210938 13.210938 17.378906 13.210938 22.5 C 13.210938 27.621094 17.378906 31.789062 22.5 31.789062 C 26.289062 31.789062 29.664062 29.503906 31.089844 26.039062 L 22.5 26.039062 C 22.253906 26.039062 22.058594 25.839844 22.058594 25.597656 L 22.058594 19.847656 C 22.058594 19.601562 22.253906 19.402344 22.5 19.402344 L 37.746094 19.402344 C 37.960938 19.402344 38.144531 19.558594 38.183594 19.769531 C 38.34375 20.695312 38.425781 21.613281 38.425781 22.5 C 38.425781 31.28125 31.28125 38.425781 22.5 38.425781 Z M 22.5 7.460938 C 14.207031 7.460938 7.460938 14.207031 7.460938 22.5 C 7.460938 30.792969 14.207031 37.539062 22.5 37.539062 C 30.792969 37.539062 37.539062 30.792969 37.539062 22.5 C 37.539062 21.78125 37.484375 21.039062 37.371094 20.289062 L 22.941406 20.289062 L 22.941406 25.152344 L 31.726562 25.152344 C 31.867188 25.152344 32 25.222656 32.085938 25.339844 C 32.167969 25.453125 32.191406 25.601562 32.144531 25.738281 C 30.753906 29.886719 26.878906 32.675781 22.5 32.675781 C 16.890625 32.675781 12.324219 28.109375 12.324219 22.5 C 12.324219 16.890625 16.890625 12.324219 22.5 12.324219 C 24.519531 12.324219 26.460938 12.914062 28.132812 14.03125 L 31.621094 10.542969 C 29.011719 8.550781 25.792969 7.460938 22.5 7.460938 Z M 22.5 7.460938 "/>
<path style=" stroke:none;fill-rule:nonzero;fill:rgb(12.156863%,12.941177%,16.862746%);fill-opacity:1;" d="M 32.011719 34.886719 C 31.957031 34.886719 31.90625 34.867188 31.863281 34.828125 L 30.09375 33.238281 C 30.003906 33.15625 29.996094 33.015625 30.078125 32.925781 C 30.160156 32.832031 30.296875 32.828125 30.390625 32.90625 L 32.160156 34.5 C 32.25 34.582031 32.257812 34.722656 32.175781 34.8125 C 32.128906 34.859375 32.070312 34.886719 32.011719 34.886719 Z M 32.011719 34.886719 "/>
<path style=" stroke:none;fill-rule:nonzero;fill:rgb(12.156863%,12.941177%,16.862746%);fill-opacity:1;" d="M 29.355469 32.496094 C 29.304688 32.496094 29.25 32.480469 29.207031 32.441406 L 28.421875 31.734375 C 28.332031 31.652344 28.324219 31.511719 28.40625 31.421875 C 28.488281 31.328125 28.628906 31.324219 28.71875 31.402344 L 29.503906 32.113281 C 29.59375 32.195312 29.601562 32.332031 29.519531 32.425781 C 29.476562 32.472656 29.417969 32.496094 29.355469 32.496094 Z M 29.355469 32.496094 "/>
<path style=" stroke:none;fill-rule:nonzero;fill:rgb(12.156863%,12.941177%,16.862746%);fill-opacity:1;" d="M 12.738281 26.921875 C 12.664062 26.921875 12.59375 26.886719 12.550781 26.820312 C 12.484375 26.71875 12.515625 26.582031 12.617188 26.515625 L 13.3125 26.074219 C 13.414062 26.007812 13.550781 26.039062 13.617188 26.140625 C 13.683594 26.246094 13.652344 26.382812 13.550781 26.445312 L 12.855469 26.890625 C 12.820312 26.914062 12.777344 26.921875 12.738281 26.921875 Z M 12.738281 26.921875 "/>
<path style=" stroke:none;fill-rule:nonzero;fill:rgb(12.156863%,12.941177%,16.862746%);fill-opacity:1;" d="M 10.777344 28.171875 C 10.703125 28.171875 10.632812 28.132812 10.589844 28.066406 C 10.527344 27.964844 10.554688 27.828125 10.660156 27.761719 L 11.542969 27.199219 C 11.644531 27.136719 11.78125 27.164062 11.847656 27.265625 C 11.914062 27.371094 11.882812 27.507812 11.78125 27.574219 L 10.894531 28.136719 C 10.859375 28.160156 10.820312 28.171875 10.777344 28.171875 Z M 10.777344 28.171875 "/>
<path style=" stroke:none;fill-rule:nonzero;fill:rgb(12.156863%,12.941177%,16.862746%);fill-opacity:1;" d="M 8.566406 29.578125 C 8.492188 29.578125 8.421875 29.542969 8.378906 29.476562 C 8.3125 29.371094 8.34375 29.234375 8.445312 29.171875 L 9.773438 28.324219 C 9.875 28.261719 10.011719 28.289062 10.078125 28.394531 C 10.144531 28.496094 10.113281 28.632812 10.011719 28.699219 L 8.683594 29.542969 C 8.648438 29.566406 8.605469 29.578125 8.566406 29.578125 Z M 8.566406 29.578125 "/>
<path style=" stroke:none;fill-rule:nonzero;fill:rgb(12.156863%,12.941177%,16.862746%);fill-opacity:1;" d="M 11.21875 17.273438 C 11.179688 17.273438 11.136719 17.261719 11.101562 17.238281 L 8.890625 15.832031 C 8.785156 15.765625 8.753906 15.628906 8.820312 15.523438 C 8.886719 15.421875 9.023438 15.394531 9.125 15.457031 L 11.339844 16.863281 C 11.441406 16.929688 11.472656 17.066406 11.40625 17.171875 C 11.363281 17.234375 11.292969 17.273438 11.21875 17.273438 Z M 11.21875 17.273438 "/>
<path style=" stroke:none;fill-rule:nonzero;fill:rgb(12.156863%,12.941177%,16.862746%);fill-opacity:1;" d="M 12.546875 18.117188 C 12.507812 18.117188 12.464844 18.105469 12.429688 18.082031 L 11.984375 17.800781 C 11.882812 17.734375 11.851562 17.597656 11.917969 17.496094 C 11.984375 17.394531 12.121094 17.363281 12.222656 17.429688 L 12.664062 17.710938 C 12.769531 17.773438 12.800781 17.910156 12.734375 18.015625 C 12.691406 18.082031 12.621094 18.117188 12.546875 18.117188 Z M 12.546875 18.117188 "/>
</g>
</svg>
